<svg xmlns="http://www.w3.org/2000/svg" viewBox="0 0 1336.26 492.34"><defs><style>.cls-1{fill:#2abb9c;}.cls-2{fill:#3eb2da;}.cls-3{fill:#fff;}</style></defs><g id="Layer_1" data-name="Layer 1"><path class="cls-1" d="M854.57,331.36c-2.08,15.24,12.38,29.84,28.71,28.27a26.25,26.25,0,0,0,13.22-5.41l198.83-151.39a10.62,10.62,0,0,1,13,0L1302.9,351.65a31.9,31.9,0,0,0,24.29,6.45c17-2.74,29.4-18.83,18.18-35.77a33.53,33.53,0,0,0-7.8-8.1L1114,145.67a21.15,21.15,0,0,0-24.65-.32L990.82,218V183.47H924.35v83.75l-61.82,50.46A21.68,21.68,0,0,0,854.57,331.36Z" transform="translate(-13.41 -141.55)"/><path class="cls-1" d="M1111,190.15h46.08a15.08,15.08,0,0,1,15.08,15.08v47.41a0,0,0,0,1,0,0H1111a0,0,0,0,1,0,0V190.15A0,0,0,0,1,1111,190.15Z"/><path class="cls-1" d="M1018.92,331.7h61.15a0,0,0,0,1,0,0V379.1A15.08,15.08,0,0,1,1065,394.18h-46.08a0,0,0,0,1,0,0V331.7A0,0,0,0,1,1018.92,331.7Z" transform="translate(2085.58 584.33) rotate(180)"/><path class="cls-1" d="M1018.92,430.52H1065a15.08,15.08,0,0,1,15.08,15.08V493a0,0,0,0,1,0,0h-61.15a0,0,0,0,1,0,0V430.52A0,0,0,0,1,1018.92,430.52Z" transform="translate(2085.58 781.97) rotate(180)"/><path class="cls-1" d="M1185.58,430.52h-61.15V493h22.71c7.9-18.5,20.65-34.19,38.44-47Z" transform="translate(-13.41 -141.55)"/><path class="cls-2" d="M1119.52,614.12s-59.75-130.41-188.87-72.59C930.65,541.53,979.25,685.25,1119.52,614.12Z" transform="translate(-13.41 -141.55)"/><path class="cls-2" d="M1134.29,613.48c11.35-92.83,35.34-191,208.79-193.37,0,0,13.49,186.94-201.08,201.07,0,0,102.31-93.79,119-117.72l-2.89-.48S1147.78,610.26,1134.29,613.48Z" transform="translate(-13.41 -141.55)"/></g><g id="Layer_2" data-name="Layer 2"><path class="cls-3" d="M36.85,307.68H60.29q2,.24,2,1.95V445.37q0,52,52.74,71.29a86.1,86.1,0,0,0,26.36,3.91h63.48q54.44,0,74.22-50.78A74.53,74.53,0,0,0,282,449.28V334q3.9-26.35,22.46-26.36h25.39q1.95.24,1.95,1.95V443.42q0,76.17-65.43,114.26a113.59,113.59,0,0,1-51.75,12.69H125.72q-60.3,0-100.59-69.33-11.71-27.6-11.72-53.71V330.14Q13.41,312.8,36.85,307.68Zm134.28,50.53A37.88,37.88,0,0,1,189.44,363a34.9,34.9,0,0,1,13.92,13.79,37.65,37.65,0,0,1,5.12,18.8,37.25,37.25,0,0,1-4.88,18.31,35.17,35.17,0,0,1-13.79,13.79,37.61,37.61,0,0,1-18.68,5,37.12,37.12,0,0,1-18.43-5,35.06,35.06,0,0,1-13.8-13.79A37.14,37.14,0,0,1,134,395.57a38.34,38.34,0,0,1,5-18.8A33.92,33.92,0,0,1,152.94,363,38.12,38.12,0,0,1,171.13,358.21Z" transform="translate(-13.41 -141.55)"/><path class="cls-3" d="M383.11,210.09h22.46c1.3.17,2,.82,2,1.95V405.4q0,23.44,18.55,29.3l5.86,1h27.83c1.3.16,2,.81,2,1.95v45.9a1.73,1.73,0,0,1-2,2H419.25q-29.55,0-50.79-30.27a56.27,56.27,0,0,1-9.76-29.3V234.51Q361.39,210.09,383.11,210.09Z" transform="translate(-13.41 -141.55)"/><path class="cls-3" d="M635.05,306.09q110.36,0,129.47,50.78,9.87,16.85,9.87,42v63.48Q768.22,484.81,746,484.8H461.19q-2.46,0-2.46-1.95V437.93a2.18,2.18,0,0,1,2.46-2H705.34V380.31q-9.26-22.46-65.35-22.46c-40.08-1.3-99-2-99-2H521.24c-1.65,0-2.46-.64-2.46-1.95V328.55q0-18.06,33.29-22.46Zm-7.26-108.46a37.87,37.87,0,0,1,18.31,4.76A34.9,34.9,0,0,1,660,216.18a37.57,37.57,0,0,1,5.12,18.8,37.14,37.14,0,0,1-4.88,18.31,35.19,35.19,0,0,1-13.79,13.8,37.71,37.71,0,0,1-18.68,5,37.21,37.21,0,0,1-18.43-5,35.15,35.15,0,0,1-13.8-13.8A37.25,37.25,0,0,1,590.68,235a38.27,38.27,0,0,1,5-18.8,33.84,33.84,0,0,1,13.91-13.79A38.1,38.1,0,0,1,627.79,197.63Z" transform="translate(-13.41 -141.55)"/></g></svg>